<svg width="2000" height="2000" viewBox="0 0 2000 2000" fill="none" xmlns="http://www.w3.org/2000/svg">
<g clip-path="url(#clip0)">
<mask id="mask0" mask-type="alpha" maskUnits="userSpaceOnUse" x="-42" y="-430" width="2515" height="2342">
<path fill-rule="evenodd" clip-rule="evenodd" d="M1798.49 866.855C1858.62 511.971 1514.54 223.561 1175.61 344.755L1123.68 363.325C761.617 492.794 393.384 186.429 454.837 -193.147L463.308 -245.469L465.282 -245.15L456.811 -192.827C395.601 185.246 762.377 490.399 1123.01 361.442L1174.94 342.872C1515.3 221.163 1860.85 510.798 1800.46 867.189L1779.39 991.561C1735.91 1248.2 1957.25 1471.73 2214.3 1430.77L2214.62 1432.74C1956.21 1473.92 1733.71 1249.22 1777.42 991.227L1798.49 866.855ZM1775.88 893.805C1836 538.921 1491.92 250.511 1153 371.705L1101.07 390.275C739.003 519.745 370.77 213.379 432.223 -166.197L440.694 -218.519L442.668 -218.199L434.197 -165.877C372.987 212.196 739.763 517.349 1100.4 388.392L1152.33 369.822C1492.69 248.113 1838.23 537.748 1777.85 894.139L1756.78 1018.51C1713.29 1275.15 1934.63 1498.68 2191.69 1457.72L2192 1459.69C1933.59 1500.87 1711.09 1276.17 1754.8 1018.18L1775.88 893.805ZM1130.39 398.656C1469.31 277.461 1813.39 565.871 1753.26 920.756L1732.19 1045.13C1688.48 1303.12 1910.98 1527.82 2169.39 1486.64L2169.08 1484.67C1912.02 1525.63 1690.68 1302.11 1734.16 1045.46L1755.23 921.09C1815.62 564.698 1470.08 275.063 1129.71 396.773L1077.78 415.342C717.149 544.299 350.373 239.147 411.583 -138.927L420.054 -191.249L418.08 -191.568L409.609 -139.246C348.156 240.33 716.389 546.695 1078.46 417.225L1130.39 398.656ZM1730.65 947.706C1790.78 592.822 1446.7 304.412 1107.77 425.606L1055.84 444.176C693.775 573.646 325.542 267.28 386.995 -112.296L395.466 -164.618L397.44 -164.298L388.969 -111.976C327.759 266.097 694.535 571.25 1055.17 442.293L1107.1 423.723C1447.46 302.014 1793 591.649 1732.62 948.04L1711.55 1072.41C1668.07 1329.06 1889.4 1552.58 2146.46 1511.62L2146.78 1513.6C1888.37 1554.77 1665.87 1330.07 1709.58 1072.08L1730.65 947.706ZM1085.16 452.557C1424.08 331.362 1768.16 619.772 1708.03 974.657L1686.96 1099.03C1643.25 1357.02 1865.75 1581.72 2124.16 1540.55L2123.85 1538.57C1866.79 1579.53 1645.45 1356.01 1688.93 1099.36L1710.01 974.991C1770.39 618.599 1424.85 328.964 1084.48 450.673L1032.55 469.243C671.921 598.2 305.145 293.048 366.355 -85.0257L374.826 -137.348L372.852 -137.668L364.381 -85.3454C302.928 294.231 671.161 600.596 1033.23 471.126L1085.16 452.557ZM1685.42 1001.61C1745.55 646.722 1401.47 358.312 1062.54 479.507L1010.61 498.077C648.547 627.546 280.314 321.181 341.767 -58.3951L350.238 -110.717L352.212 -110.398L343.741 -58.0755C282.531 319.998 649.307 625.15 1009.94 496.193L1061.87 477.624C1402.23 355.914 1747.78 645.549 1687.39 1001.94L1666.32 1126.31C1622.84 1382.96 1844.18 1606.48 2101.23 1565.52L2101.55 1567.5C1843.14 1608.67 1620.64 1383.97 1664.35 1125.98L1685.42 1001.61ZM1039.93 506.457C1378.85 385.262 1722.93 673.672 1662.81 1028.56L1641.74 1152.93C1598.02 1410.92 1820.52 1635.62 2078.93 1594.45L2078.62 1592.47C1821.56 1633.43 1600.22 1409.91 1643.71 1153.26L1664.78 1028.89C1725.16 672.499 1379.62 382.864 1039.26 504.574L987.326 523.143C626.693 652.1 259.917 346.948 321.127 -31.1254L329.598 -83.4477L327.624 -83.7673L319.153 -31.445C257.7 348.131 625.933 654.496 987.999 525.027L1039.93 506.457ZM1640.19 1055.51C1700.32 700.623 1356.24 412.213 1017.32 533.407L965.385 551.977C603.319 681.447 235.086 375.081 296.539 -4.49456L305.01 -56.8169L306.984 -56.4972L298.513 -4.1749C237.303 373.898 604.079 679.051 964.712 550.094L1016.64 531.524C1357.01 409.815 1702.55 699.45 1642.16 1055.84L1621.09 1180.21C1577.61 1436.86 1798.95 1660.38 2056.01 1619.42L2056.32 1621.4C1797.91 1662.57 1575.41 1437.87 1619.12 1179.88L1640.19 1055.51ZM994.702 560.357C1333.63 439.163 1677.71 727.573 1617.58 1082.46L1596.51 1206.83C1552.8 1464.82 1775.3 1689.52 2033.71 1648.35L2033.39 1646.37C1776.33 1687.33 1555 1463.81 1598.48 1207.16L1619.55 1082.79C1679.93 726.4 1334.39 436.765 994.029 558.474L942.098 577.044C581.465 706.001 214.69 400.848 275.899 22.775L284.37 -29.5473L282.396 -29.867L273.925 22.4554C212.472 402.031 580.705 708.397 942.771 578.927L994.702 560.357ZM1594.97 1109.41C1655.09 754.524 1311.01 466.113 972.088 587.308L920.157 605.878C558.091 735.347 189.858 428.982 251.311 49.4061L259.782 -2.91626L261.756 -2.5966L253.285 49.7257C192.076 427.799 558.851 732.951 919.484 603.994L971.415 585.425C1311.78 463.716 1657.32 753.35 1596.94 1109.74L1575.86 1234.11C1532.38 1490.76 1753.72 1714.28 2010.78 1673.32L2011.09 1675.3C1752.68 1716.47 1530.18 1491.77 1573.89 1233.78L1594.97 1109.41ZM949.474 614.258C1288.4 493.064 1632.48 781.474 1572.35 1136.36L1551.28 1260.73C1507.57 1518.72 1730.07 1743.42 1988.48 1702.25L1988.16 1700.27C1731.11 1741.23 1509.77 1517.71 1553.25 1261.06L1574.32 1136.69C1634.71 780.301 1289.17 490.666 948.801 612.375L896.87 630.945C536.237 759.902 169.462 454.749 230.671 76.6757L239.142 24.3534L237.168 24.0338L228.697 76.3561C167.244 455.932 535.477 762.297 897.543 632.828L949.474 614.258ZM1549.74 1163.31C1609.86 808.424 1265.79 520.014 926.86 641.208L874.929 659.778C512.863 789.248 144.63 482.882 206.083 103.306L214.554 50.984L216.528 51.3036L208.057 103.626C146.848 481.699 513.623 786.852 874.256 657.895L926.187 639.325C1266.55 517.616 1612.09 807.251 1551.71 1163.64L1530.64 1288.01C1487.15 1544.66 1708.49 1768.18 1965.55 1727.22L1965.86 1729.2C1707.45 1770.37 1484.95 1545.67 1528.67 1287.68L1549.74 1163.31ZM904.246 668.159C1243.17 546.964 1587.25 835.374 1527.12 1190.26L1506.05 1314.63C1462.34 1572.62 1684.84 1797.32 1943.25 1756.15L1942.94 1754.17C1685.88 1795.13 1464.54 1571.61 1508.02 1314.96L1529.1 1190.59C1589.48 834.201 1243.94 544.566 903.573 666.276L851.642 684.845C491.009 813.802 124.234 508.65 185.443 130.576L193.914 78.2541L191.94 77.9345L183.469 130.257C122.016 509.833 490.249 816.198 852.315 686.728L904.246 668.159ZM1504.51 1217.21C1564.64 862.324 1220.56 573.914 881.632 695.109L829.701 713.679C467.635 843.148 99.402 536.783 160.855 157.207L169.326 104.885L171.3 105.204L162.829 157.527C101.62 535.6 468.395 840.752 829.028 711.795L880.959 693.226C1221.32 571.516 1566.86 861.151 1506.48 1217.54L1485.41 1341.92C1441.93 1598.56 1663.26 1822.08 1920.32 1781.12L1920.64 1783.1C1662.23 1824.27 1439.73 1599.57 1483.44 1341.58L1504.51 1217.21ZM859.018 722.06C1197.94 600.865 1542.02 889.275 1481.9 1244.16L1460.82 1368.53C1417.11 1626.52 1639.61 1851.22 1898.02 1810.05L1897.71 1808.07C1640.65 1849.03 1419.31 1625.51 1462.79 1368.87L1483.87 1244.49C1544.25 888.102 1198.71 598.467 858.345 720.176L806.414 738.746C445.781 867.703 79.0056 562.551 140.215 184.477L148.686 132.155L146.712 131.835L138.241 184.158C76.788 563.734 445.021 870.099 807.087 740.629L859.018 722.06Z" fill="#FF9636"/>
</mask>
<g mask="url(#mask0)">
<rect x="-194.68" y="-358.587" width="2714.21" height="2480.44" fill="url(#paint0_linear)"/>
</g>
</g>
<defs>
<linearGradient id="paint0_linear" x1="189.5" y1="76.5" x2="1909.5" y2="1631" gradientUnits="userSpaceOnUse">
<stop stop-color="#121212"/>
<stop offset="0.369792" stop-color="#FF5A48"/>
<stop offset="0.682292" stop-color="#392AEA"/>
<stop offset="1" stop-color="#121212"/>
</linearGradient>
<clipPath id="clip0">
<rect width="2000" height="2000" fill="white"/>
</clipPath>
</defs>
</svg>
